<svg xmlns="http://www.w3.org/2000/svg" width="1200" height="630" viewBox="0 0 1200 630">
  <rect width="1200" height="630" fill="#0b0c0e"/>
  <path d="M64 116h1072M64 518h1072" stroke="#292d34"/>
  <text x="64" y="78" fill="#a3a7af" font-family="Arial,sans-serif" font-size="19" letter-spacing="4">DYLAN CLOCHARD / PORTFOLIO</text>
  <g transform="translate(944 188) scale(.34)">
    <rect width="512" height="512" rx="80" fill="#191c20"/>
    <g fill="none" stroke="#e9eaec" stroke-width="27" stroke-linecap="square" stroke-linejoin="round"><path d="M112 170h45c54 0 79 33 79 86s-25 86-79 86h-45Z"/><path d="M395 184c-17-13-34-18-53-18-47 0-72 35-72 90s25 90 72 90c19 0 36-5 53-18"/></g>
    <circle cx="405" cy="406" r="18" fill="#65c98c"/>
  </g>
  <text x="60" y="265" fill="#e9eaec" font-family="Arial,sans-serif" font-size="88" font-weight="600" letter-spacing="-4">Dylan Clochard.</text>
  <text x="64" y="332" fill="#a3a7af" font-family="Arial,sans-serif" font-size="29">Développement web, mobile &amp; jeux</text>
  <circle cx="72" cy="442" r="6" fill="#65c98c"/>
  <text x="92" y="449" fill="#e9eaec" font-family="Arial,sans-serif" font-size="20">Disponible pour une alternance</text>
  <text x="64" y="570" fill="#a3a7af" font-family="Arial,sans-serif" font-size="18">WEB / MOBILE / GAME DEVELOPMENT</text>
  <text x="1136" y="570" fill="#a3a7af" font-family="Arial,sans-serif" font-size="18" text-anchor="end">MARSEILLE, FRANCE</text>
</svg>
